<svg xmlns="http://www.w3.org/2000/svg" viewBox="0 0 512 512" width="512" height="512">
  <circle cx="256" cy="256" r="256" fill="#2c1810"/>
  <path
    fill="#fdf6ef"
    stroke="#fdf6ef"
    stroke-width="18"
    stroke-linejoin="round"
    stroke-linecap="round"
    d="M243.47 359.85Q239.19 359.85 234.74 357.21Q230.29 354.57 230.29 350.94Q230.29 348.31 231.60 346.99Q243.14 335.78 254.52 320.62Q265.89 305.45 280.07 280.07Q298.53 247.10 306.77 224.19Q315.01 201.27 315.01 192.04Q315.01 179.52 306.11 170.29Q297.21 161.06 275.12 161.06Q259.63 161.06 241.33 164.19Q223.03 167.32 204.41 172.92Q185.78 178.53 168.31 185.62Q150.84 192.70 136.66 200.62Q92.15 225.34 92.15 247.76Q92.15 266.55 123.80 266.55Q132.37 266.55 141.77 265.07Q151.16 263.58 165.34 260.29Q166.99 259.96 167.98 259.79Q168.97 259.63 169.63 259.63Q172.92 259.63 172.92 261.60Q172.92 267.21 151.49 271.16Q143.25 272.48 136.16 273.47Q129.08 274.46 123.47 274.46Q100.40 274.46 88.20 267.21Q76 259.96 76 245.45Q76 231.93 86.38 219.08Q96.77 206.22 120.18 193.03Q137.65 183.47 159.57 174.41Q181.49 165.34 202.92 160.07Q220.07 155.78 236.22 153.97Q252.37 152.15 266.55 152.15Q300.51 152.15 317.15 164.52Q333.80 176.88 333.80 198.31Q333.80 213.47 327.54 230.95Q321.27 248.42 306.11 271.16Q317.65 259.96 328.69 247.92Q339.74 235.89 350.94 225.67Q368.09 210.18 381.93 202.59Q395.78 195.01 406 195.01Q436 195.01 436 218.09Q436 227.65 430.89 242.32Q425.78 256.99 413.58 278.09Q401.71 299.19 394.30 314.02Q386.88 328.86 386.88 335.12Q386.88 345.01 398.42 345.01Q401.71 345.01 406.66 344.02Q411.60 343.03 415.89 340.40Q420.51 337.76 422.65 335.78Q424.79 333.80 425.78 333.80Q427.43 333.80 427.43 335.45Q427.43 338.75 425.12 342.21Q422.81 345.67 417.21 348.31Q411.27 350.62 406.33 352.10Q401.38 353.58 396.77 353.58Q382.59 353.58 376.16 347.98Q369.74 342.37 369.74 333.14Q369.74 326.88 372.21 319.79Q374.68 312.70 378.97 305.12Q379.63 304.46 382.26 299.52Q384.90 294.57 388.20 288.31Q391.49 282.04 394.13 276.93Q396.77 271.82 397.43 270.84Q401.71 262.92 406.16 253.86Q410.62 244.79 412.92 238.20Q415.89 229.63 416.88 225.01Q417.87 220.40 417.87 217.10Q417.87 210.51 414.74 208.20Q411.60 205.89 406.99 205.89Q403.36 205.89 399.74 206.88Q396.11 207.87 392.81 209.52Q378.64 216.44 361.82 230.62Q345.01 244.79 322.59 267.21Q306.77 283.03 291.93 300.67Q277.10 318.31 263.91 336.44Q260.95 340.40 257.48 345.84Q254.02 351.27 250.56 355.23Q247.10 359.19 243.47 359.85"
  />
</svg>
